<svg xmlns="http://www.w3.org/2000/svg" viewBox="-230 -230 1000 1000"><path fill="#e53c5c" d="M256 49.47c67.27 0 75.23.26 101.8 1.47 24.56 1.12 37.9 5.22 46.78 8.67a78.05 78.05 0 0 1 29 18.84 78.05 78.05 0 0 1 18.84 29c3.45 8.88 7.55 22.22 8.67 46.78 1.21 26.56 1.47 34.53 1.47 101.8s-.26 75.23-1.47 101.8c-1.12 24.56-5.22 37.9-8.67 46.78a83.43 83.43 0 0 1-47.81 47.81c-8.88 3.45-22.22 7.55-46.78 8.67-26.56 1.21-34.53 1.47-101.8 1.47s-75.24-.26-101.8-1.47c-24.56-1.12-37.9-5.22-46.78-8.67a78.05 78.05 0 0 1-29-18.84 78.05 78.05 0 0 1-18.84-29c-3.45-8.88-7.55-22.22-8.67-46.78-1.21-26.56-1.47-34.53-1.47-101.8s.26-75.23 1.47-101.8c1.12-24.56 5.22-37.9 8.67-46.78a78.05 78.05 0 0 1 18.84-29 78.05 78.05 0 0 1 29-18.84c8.88-3.45 22.22-7.55 46.78-8.67 26.56-1.21 34.53-1.47 101.8-1.47m0-45.39c-68.42 0-77 .29-103.87 1.52S107 11.08 91 17.3a123.49 123.49 0 0 0-44.64 29.06A123.49 123.49 0 0 0 17.3 91c-6.22 16-10.48 34.32-11.7 61.13S4.08 187.58 4.08 256s.29 77 1.52 103.87S11.08 405 17.3 421a123.49 123.49 0 0 0 29.06 44.62A123.49 123.49 0 0 0 91 494.69c16 6.23 34.34 10.49 61.15 11.71s35.45 1.52 103.87 1.52 77-.29 103.87-1.52S405 500.92 421 494.69A128.82 128.82 0 0 0 494.69 421c6.23-16 10.49-34.34 11.71-61.15s1.52-35.45 1.52-103.87-.29-77-1.52-103.87S500.92 107 494.69 91a123.49 123.49 0 0 0-29.06-44.62A123.49 123.49 0 0 0 421 17.3c-16-6.22-34.32-10.48-61.13-11.7S324.42 4.08 256 4.08zM256 126.64A129.36 129.36 0 1 0 385.36 256 129.36 129.36 0 0 0 256 126.64zM256 340a84 84 0 1 1 84-84 84 84 0 0 1-84 84z" transform="translate(-4.08 -4.08)"/><circle fill="#e53c5c" cx="386.4" cy="117.44" r="30.23"/></svg>