<svg xmlns="http://www.w3.org/2000/svg" viewBox="-130 -130 500 500"><path fill="#BD081C" d="M122 0C54.6 0 0 54.6-.1 121.9c0 50.3 30.8 95.4 77.6 113.7-1.1-9.6-2-24.5.4-35C80.1 191 92.2 140 92.2 140c-2.5-5.7-3.7-11.9-3.7-18.1 0-17 9.8-29.6 22.1-29.6 10.4 0 15.4 7.8 15.4 17.2 0 10.5-6.7 26.1-10.1 40.6-2.9 12.1 6.1 22 18.1 22 21.7 0 38.4-22.9 38.4-55.9 0-29.2-21-49.6-51-49.6-34.7 0-55.1 26-55.1 52.9 0 10.5 4 21.7 9.1 27.8.9.9 1.2 2.3.8 3.5-.9 3.9-3 12.1-3.4 13.8-.5 2.2-1.8 2.7-4.1 1.6-15.2-7.1-24.7-29.3-24.7-47.3 0-38.5 28-73.8 80.6-73.8 42.3 0 75.2 30.2 75.2 70.5 0 42-26.5 75.9-63.3 75.9-12.4 0-24-6.4-28-14 0 0-6.1 23.3-7.6 29-2.8 10.6-10.2 23.9-15.2 32 64.4 19.9 132.7-16.2 152.5-80.6S222.1 25.3 157.8 5.4C146.2 1.8 134.1 0 122 0z"/></svg>