<svg xmlns="http://www.w3.org/2000/svg" viewBox="310 220 170 170"><path fill="#221e1f" d="M394.31 261.12a45.6 45.6 0 0 0-45.45 41.95l24.44 10.11a12.83 12.83 0 0 1 7.27-2.24h.72l10.87-15.76v-.22a17.2 17.2 0 1 1 17.2 17.2H409l-15.5 11.06v.61a12.91 12.91 0 0 1-25.57 2.54l-17.48-7.23a45.6 45.6 0 1 0 43.88-58zM377.45 330.32l-5.6-2.31a9.69 9.69 0 1 0 5.3-13.25l5.79 2.39a7.13 7.13 0 1 1-5.49 13.17zM420.82 295a11.46 11.46 0 1 0-11.46 11.46A11.47 11.47 0 0 0 420.82 295zm-20 0a8.61 8.61 0 1 1 8.61 8.61 8.61 8.61 0 0 1-8.66-8.61z"/></svg>