<svg xmlns="http://www.w3.org/2000/svg" viewBox="-25 -20 450 450"><path class="logo" fill="#1da1f2" d="M153.6 301.6c94.3 0 145.9-78.2 145.9-145.9 0-2.2 0-4.4-.1-6.6a104.47 104.47 0 0 0 25.6-26.6 103.93 103.93 0 0 1-29.5 8.1 51.59 51.59 0 0 0 22.6-28.4 102 102 0 0 1-32.6 12.4 51.29 51.29 0 0 0-88.7 35.1 56.68 56.68 0 0 0 1.3 11.7 145.61 145.61 0 0 1-105.7-53.6 51.48 51.48 0 0 0 15.9 68.5 51.87 51.87 0 0 1-23.2-6.4v.7a51.39 51.39 0 0 0 41.1 50.3 51.58 51.58 0 0 1-23.1.9 51.28 51.28 0 0 0 47.9 35.6 102.85 102.85 0 0 1-63.7 22 98.68 98.68 0 0 1-12.2-.7 145.86 145.86 0 0 0 78.5 22.9"/></svg>