<svg xmlns="http://www.w3.org/2000/svg" viewBox="-75 -70 400 400"><path fill="#494541" d="M41.65 126.61a85 85 0 0 0 47.89 76.46L49 92a84.63 84.63 0 0 0-7.35 34.61zM184 122.32c0-10.5-3.77-17.77-7-23.43-4.31-7-8.35-12.93-8.35-19.93 0-7.81 5.92-15.08 14.27-15.08.38 0 .73 0 1.1.07a84.94 84.94 0 0 0-128.36 16c2 .06 3.87.1 5.47.1C70 80 83.73 79 83.73 79c4.58-.27 5.12 6.46.54 7 0 0-4.6.54-9.72.81l30.94 92 18.6-55.81-13.24-36.23c-4.58-.27-8.91-.81-8.91-.81-4.58-.27-4-7.27.54-7 0 0 14 1.08 22.38 1.08C133.74 80 147.5 79 147.5 79c4.58-.27 5.12 6.46.54 7 0 0-4.61.54-9.72.81L169 178.1l8.48-28.31c3.69-11.79 6.52-20.2 6.52-27.47zM128.1 134l-25.49 74.07a85 85 0 0 0 52.22-1.35 7.94 7.94 0 0 1-.61-1.17zM201.16 85.85a65.19 65.19 0 0 1 .57 8.74c0 8.62-1.61 18.31-6.46 30.43l-26 75a85 85 0 0 0 31.84-114.2zM126.61 27.57a99 99 0 1 0 99 99 99.15 99.15 0 0 0-99-99zm0 193.54a94.5 94.5 0 1 1 94.5-94.5 94.61 94.61 0 0 1-94.5 94.5z"/></svg>